Coordinates
version=1
nRows=7
nColumns=38
inDegrees=yes

Units are S.I. units (second, meters, Newtons, ...)
Angles are in degrees.

endheader
time	pelvis_tilt	pelvis_list	pelvis_rotation	pelvis_tx	pelvis_ty	pelvis_tz	hip_flexion_r	hip_adduction_r	hip_rotation_r	knee_angle_r	ankle_angle_r	subtalar_angle_r	mtp_angle_r	hip_flexion_l	hip_adduction_l	hip_rotation_l	knee_angle_l	ankle_angle_l	subtalar_angle_l	mtp_angle_l	lumbar_extension	lumbar_bending	lumbar_rotation	arm_flex_r	arm_add_r	arm_rot_r	elbow_flex_r	pro_sup_r	wrist_flex_r	wrist_dev_r	arm_flex_l	arm_add_l	arm_rot_l	elbow_flex_l	pro_sup_l	wrist_flex_l	wrist_dev_l
      1.74000000	     11.07774766	     -1.22761642	     -0.99128588	     -0.00526150	      0.91352016	      0.00206381	    -15.83071956	      2.66373762	     -5.89173962	     -2.04168693	      0.54023105	      0.00000000	      0.00000000	    -14.41585415	     -1.06542126	    -10.96699893	     -4.46601808	     -0.86668297	      0.00000000	      0.00000000	    -22.31488634	     -1.23012063	      2.21773974	      1.30802489	     -2.50403612	    -18.66705250	     32.13784873	    113.04959239	      0.00000000	      0.00000000	      5.77338283	     -2.41363070	    -20.31575677	     30.05493926	    113.81928012	      0.00000000	      0.00000000
      1.75000000	     11.08021961	     -1.23031099	     -0.99092670	     -0.00524714	      0.91353873	      0.00203710	    -15.83389933	      2.66525069	     -5.88939458	     -2.04190232	      0.54679111	      0.00000000	      0.00000000	    -14.41979977	     -1.06836915	    -10.97350651	     -4.46823886	     -0.86129427	      0.00000000	      0.00000000	    -22.31434902	     -1.22668285	      2.21428640	      1.30275851	     -2.49943040	    -18.67239773	     32.14173754	    113.06457703	      0.00000000	      0.00000000	      5.77078675	     -2.41443311	    -20.31642004	     30.05430663	    113.82193524	      0.00000000	      0.00000000
      1.76000000	     11.08179175	     -1.23440489	     -0.98829766	     -0.00524348	      0.91354935	      0.00201233	    -15.83626049	      2.66901157	     -5.88670109	     -2.04129164	      0.55329602	      0.00000000	      0.00000000	    -14.42092774	     -1.07274829	    -10.98083645	     -4.46830802	     -0.85552649	      0.00000000	      0.00000000	    -22.31457210	     -1.22171602	      2.21044614	      1.29793628	     -2.49454306	    -18.67874577	     32.14522562	    113.07991947	      0.00000000	      0.00000000	      5.76958948	     -2.41588465	    -20.31723119	     30.05353475	    113.82291089	      0.00000000	      0.00000000
      1.77000000	     11.08271715	     -1.23910266	     -0.98466241	     -0.00524647	      0.91354209	      0.00199522	    -15.83802522	      2.67409258	     -5.88369805	     -2.03997919	      0.55904702	      0.00000000	      0.00000000	    -14.41953308	     -1.07714960	    -10.98817882	     -4.46649017	     -0.85044036	      0.00000000	      0.00000000	    -22.31534632	     -1.21605163	      2.20655458	      1.29392281	     -2.48965356	    -18.68546511	     32.14803448	    113.09555498	      0.00000000	      0.00000000	      5.76922057	     -2.41785593	    -20.31831967	     30.05298550	    113.82232978	      0.00000000	      0.00000000
      1.78000000	     11.08336585	     -1.24332150	     -0.98204515	     -0.00524586	      0.91352207	      0.00198547	    -15.83965149	      2.67882633	     -5.88058470	     -2.03819283	      0.56348968	      0.00000000	      0.00000000	    -14.41752346	     -1.08045188	    -10.99417699	     -4.46421437	     -0.84748629	      0.00000000	      0.00000000	    -22.31604716	     -1.21098880	      2.20298179	      1.29067670	     -2.48507961	    -18.69202102	     32.14990405	    113.11144160	      0.00000000	      0.00000000	      5.76860166	     -2.41995417	    -20.31976936	     30.05298809	    113.82036754	      0.00000000	      0.00000000
      1.79000000	     11.08383256	     -1.24632457	     -0.98212371	     -0.00523993	      0.91350670	      0.00197798	    -15.84152522	      2.68158284	     -5.87759046	     -2.03627917	      0.56623990	      0.00000000	      0.00000000	    -14.41734143	     -1.08231092	    -10.99756950	     -4.46315721	     -0.84791574	      0.00000000	      0.00000000	    -22.31593079	     -1.20765569	      2.19996837	      1.28782882	     -2.48109874	    -18.69806972	     32.15067440	    113.12753473	      0.00000000	      0.00000000	      5.76668104	     -2.42171949	    -20.32157484	     30.05379180	    113.81724369	      0.00000000	      0.00000000
      1.80000000	     11.08415715	     -1.24808227	     -0.98526592	     -0.00523116	      0.91350525	      0.00196835	    -15.84375135	      2.68174337	     -5.87488273	     -2.03465102	      0.56711249	      0.00000000	      0.00000000	    -14.42023651	     -1.08292665	    -10.99795790	     -4.46399404	     -0.85209571	      0.00000000	      0.00000000	    -22.31446863	     -1.20630107	      2.19755248	      1.28492014	     -2.47782046	    -18.70350585	     32.15035167	    113.14376486	      0.00000000	      0.00000000	      5.76294146	     -2.42287217	    -20.32362236	     30.05555164	    113.81321027	      0.00000000	      0.00000000
